<?xml version="1.0" encoding="UTF-8"?>
<svg xmlns="http://www.w3.org/2000/svg" xmlns:xlink="http://www.w3.org/1999/xlink" viewBox="0 0 25 25" width="25px" height="25px">
<g id="surface39343292">
<path style=" stroke:none;fill-rule:nonzero;fill:rgb(94.509804%,76.862746%,5.882353%);fill-opacity:1;" d="M 1.960938 2.828125 L 4.09375 20.503906 C 4.167969 21.128906 4.617188 21.652344 5.226562 21.824219 L 12.078125 23.769531 C 12.355469 23.847656 12.648438 23.847656 12.925781 23.773438 L 20.128906 21.820312 C 20.757812 21.652344 21.21875 21.113281 21.28125 20.464844 L 23.058594 2.816406 C 23.105469 2.351562 22.742188 1.953125 22.273438 1.953125 L 2.742188 1.953125 C 2.269531 1.953125 1.902344 2.363281 1.957031 2.828125 Z M 1.960938 2.828125 "/>
<path style=" stroke:none;fill-rule:nonzero;fill:rgb(90.196079%,49.411765%,13.333334%);fill-opacity:1;" d="M 20.453125 3.90625 L 12.5 3.90625 L 12.5 21.875 C 12.617188 21.875 12.730469 21.859375 12.847656 21.828125 L 18.707031 20.121094 C 19.21875 19.96875 19.59375 19.5 19.644531 18.933594 L 21.089844 4.660156 C 21.128906 4.257812 20.832031 3.90625 20.453125 3.90625 Z M 20.453125 3.90625 "/>
<path style=" stroke:none;fill-rule:nonzero;fill:rgb(20.392157%,28.627452%,36.862746%);fill-opacity:1;" d="M 12.507812 24.21875 C 12.328125 24.21875 12.148438 24.195312 11.96875 24.144531 L 5.121094 22.199219 C 4.355469 21.984375 3.800781 21.335938 3.707031 20.550781 L 1.570312 2.875 C 1.53125 2.542969 1.636719 2.210938 1.855469 1.960938 C 2.082031 1.707031 2.402344 1.5625 2.742188 1.5625 L 22.277344 1.5625 C 22.609375 1.5625 22.929688 1.703125 23.152344 1.949219 C 23.375 2.195312 23.484375 2.523438 23.449219 2.855469 L 21.671875 20.503906 C 21.589844 21.304688 21.011719 21.988281 20.230469 22.199219 L 13.027344 24.148438 C 12.859375 24.195312 12.683594 24.21875 12.511719 24.21875 Z M 2.742188 2.34375 C 2.625 2.34375 2.519531 2.390625 2.441406 2.476562 C 2.367188 2.5625 2.332031 2.671875 2.347656 2.78125 L 4.480469 20.457031 C 4.539062 20.929688 4.875 21.316406 5.332031 21.449219 L 12.183594 23.390625 C 12.390625 23.453125 12.613281 23.453125 12.824219 23.394531 L 20.027344 21.445312 C 20.496094 21.316406 20.847656 20.90625 20.894531 20.425781 L 22.671875 2.773438 C 22.683594 2.664062 22.648438 2.558594 22.574219 2.476562 C 22.496094 2.390625 22.390625 2.34375 22.273438 2.34375 Z M 2.742188 2.34375 "/>
<path style=" stroke:none;fill-rule:nonzero;fill:rgb(20.392157%,28.627452%,36.862746%);fill-opacity:1;" d="M 22.265625 4.6875 C 22.050781 4.6875 21.875 4.511719 21.875 4.296875 L 21.875 3.515625 C 21.875 3.300781 22.050781 3.125 22.265625 3.125 C 22.480469 3.125 22.65625 3.300781 22.65625 3.515625 L 22.65625 4.296875 C 22.65625 4.511719 22.480469 4.6875 22.265625 4.6875 Z M 20.3125 4.6875 C 20.097656 4.6875 19.921875 4.511719 19.921875 4.296875 L 19.921875 3.515625 C 19.921875 3.300781 20.097656 3.125 20.3125 3.125 C 20.527344 3.125 20.703125 3.300781 20.703125 3.515625 L 20.703125 4.296875 C 20.703125 4.511719 20.527344 4.6875 20.3125 4.6875 Z M 18.359375 4.6875 C 18.144531 4.6875 17.96875 4.511719 17.96875 4.296875 L 17.96875 3.515625 C 17.96875 3.300781 18.144531 3.125 18.359375 3.125 C 18.574219 3.125 18.75 3.300781 18.75 3.515625 L 18.75 4.296875 C 18.75 4.511719 18.574219 4.6875 18.359375 4.6875 Z M 16.40625 4.6875 C 16.191406 4.6875 16.015625 4.511719 16.015625 4.296875 L 16.015625 3.515625 C 16.015625 3.300781 16.191406 3.125 16.40625 3.125 C 16.621094 3.125 16.796875 3.300781 16.796875 3.515625 L 16.796875 4.296875 C 16.796875 4.511719 16.621094 4.6875 16.40625 4.6875 Z M 14.453125 4.6875 C 14.238281 4.6875 14.0625 4.511719 14.0625 4.296875 L 14.0625 3.515625 C 14.0625 3.300781 14.238281 3.125 14.453125 3.125 C 14.667969 3.125 14.84375 3.300781 14.84375 3.515625 L 14.84375 4.296875 C 14.84375 4.511719 14.667969 4.6875 14.453125 4.6875 Z M 12.5 4.6875 C 12.285156 4.6875 12.109375 4.511719 12.109375 4.296875 L 12.109375 3.515625 C 12.109375 3.300781 12.285156 3.125 12.5 3.125 C 12.714844 3.125 12.890625 3.300781 12.890625 3.515625 L 12.890625 4.296875 C 12.890625 4.511719 12.714844 4.6875 12.5 4.6875 Z M 10.546875 4.6875 C 10.332031 4.6875 10.15625 4.511719 10.15625 4.296875 L 10.15625 3.515625 C 10.15625 3.300781 10.332031 3.125 10.546875 3.125 C 10.761719 3.125 10.9375 3.300781 10.9375 3.515625 L 10.9375 4.296875 C 10.9375 4.511719 10.761719 4.6875 10.546875 4.6875 Z M 8.59375 4.6875 C 8.378906 4.6875 8.203125 4.511719 8.203125 4.296875 L 8.203125 3.515625 C 8.203125 3.300781 8.378906 3.125 8.59375 3.125 C 8.808594 3.125 8.984375 3.300781 8.984375 3.515625 L 8.984375 4.296875 C 8.984375 4.511719 8.808594 4.6875 8.59375 4.6875 Z M 6.640625 4.6875 C 6.425781 4.6875 6.25 4.511719 6.25 4.296875 L 6.25 3.515625 C 6.25 3.300781 6.425781 3.125 6.640625 3.125 C 6.855469 3.125 7.03125 3.300781 7.03125 3.515625 L 7.03125 4.296875 C 7.03125 4.511719 6.855469 4.6875 6.640625 4.6875 Z M 4.6875 4.6875 C 4.472656 4.6875 4.296875 4.511719 4.296875 4.296875 L 4.296875 3.515625 C 4.296875 3.300781 4.472656 3.125 4.6875 3.125 C 4.902344 3.125 5.078125 3.300781 5.078125 3.515625 L 5.078125 4.296875 C 5.078125 4.511719 4.902344 4.6875 4.6875 4.6875 Z M 2.734375 4.6875 C 2.519531 4.6875 2.34375 4.511719 2.34375 4.296875 L 2.34375 3.515625 C 2.34375 3.300781 2.519531 3.125 2.734375 3.125 C 2.949219 3.125 3.125 3.300781 3.125 3.515625 L 3.125 4.296875 C 3.125 4.511719 2.949219 4.6875 2.734375 4.6875 Z M 2.734375 4.6875 "/>
<path style=" stroke:none;fill-rule:nonzero;fill:rgb(90.588236%,29.803923%,23.529412%);fill-opacity:1;" d="M 9.375 7.421875 C 9.375 10.675781 9.375 13.933594 9.375 17.1875 C 8.203125 16.925781 7.03125 16.667969 5.859375 16.40625 C 5.941406 17.1875 6.019531 17.96875 6.101562 18.75 C 7.84375 19.246094 9.585938 19.742188 11.328125 20.242188 L 11.328125 7.421875 C 10.675781 7.421875 10.027344 7.421875 9.375 7.421875 Z M 9.375 7.421875 "/>
<path style=" stroke:none;fill-rule:nonzero;fill:rgb(90.588236%,29.803923%,23.529412%);fill-opacity:1;" d="M 19.460938 9.394531 L 19.632812 7.421875 C 17.644531 7.421875 15.660156 7.421875 13.671875 7.421875 C 13.671875 10.285156 13.671875 13.152344 13.671875 16.015625 C 14.835938 15.746094 16 15.476562 17.167969 15.207031 L 17.042969 17.058594 C 15.917969 17.359375 14.796875 17.664062 13.671875 17.96875 C 13.671875 18.75 13.671875 19.53125 13.671875 20.3125 C 15.328125 19.835938 16.988281 19.359375 18.644531 18.882812 L 19.164062 12.84375 C 17.984375 12.992188 16.804688 13.136719 15.625 13.28125 C 15.625 11.980469 15.625 10.675781 15.625 9.375 C 16.902344 9.382812 18.183594 9.386719 19.460938 9.394531 Z M 19.460938 9.394531 "/>
<path style=" stroke:none;fill-rule:nonzero;fill:rgb(20.392157%,28.627452%,36.862746%);fill-opacity:1;" d="M 11.328125 20.632812 C 11.292969 20.632812 11.257812 20.625 11.222656 20.617188 L 5.992188 19.125 C 5.839844 19.082031 5.726562 18.949219 5.710938 18.789062 L 5.472656 16.445312 C 5.457031 16.320312 5.507812 16.199219 5.601562 16.113281 C 5.695312 16.03125 5.820312 15.996094 5.945312 16.023438 L 8.984375 16.699219 L 8.984375 7.421875 C 8.984375 7.207031 9.160156 7.03125 9.375 7.03125 L 11.328125 7.03125 C 11.542969 7.03125 11.71875 7.207031 11.71875 7.421875 L 11.71875 20.242188 C 11.71875 20.363281 11.660156 20.476562 11.5625 20.550781 C 11.496094 20.605469 11.410156 20.632812 11.328125 20.632812 Z M 6.460938 18.445312 L 10.9375 19.722656 L 10.9375 7.8125 L 9.765625 7.8125 L 9.765625 17.1875 C 9.765625 17.304688 9.710938 17.417969 9.621094 17.492188 C 9.527344 17.566406 9.40625 17.59375 9.289062 17.570312 L 6.304688 16.90625 Z M 6.460938 18.445312 "/>
<path style=" stroke:none;fill-rule:nonzero;fill:rgb(20.392157%,28.627452%,36.862746%);fill-opacity:1;" d="M 13.671875 20.703125 C 13.585938 20.703125 13.503906 20.675781 13.4375 20.625 C 13.339844 20.550781 13.28125 20.433594 13.28125 20.3125 L 13.28125 17.96875 C 13.28125 17.792969 13.398438 17.636719 13.570312 17.589844 L 16.671875 16.753906 L 16.742188 15.707031 L 13.757812 16.394531 C 13.644531 16.421875 13.523438 16.394531 13.429688 16.320312 C 13.335938 16.246094 13.28125 16.132812 13.28125 16.015625 L 13.28125 7.421875 C 13.28125 7.207031 13.457031 7.03125 13.671875 7.03125 L 19.632812 7.03125 C 19.742188 7.03125 19.84375 7.078125 19.917969 7.15625 C 19.992188 7.238281 20.03125 7.347656 20.019531 7.457031 L 19.851562 9.425781 C 19.832031 9.628906 19.648438 9.796875 19.460938 9.785156 L 16.015625 9.765625 L 16.015625 12.839844 L 19.117188 12.457031 C 19.234375 12.441406 19.351562 12.480469 19.4375 12.5625 C 19.519531 12.644531 19.5625 12.761719 19.554688 12.878906 L 19.035156 18.917969 C 19.019531 19.078125 18.910156 19.214844 18.753906 19.257812 L 13.78125 20.6875 C 13.746094 20.699219 13.707031 20.703125 13.671875 20.703125 Z M 14.0625 18.269531 L 14.0625 19.792969 L 18.277344 18.582031 L 18.734375 13.292969 L 15.671875 13.667969 C 15.5625 13.683594 15.449219 13.648438 15.367188 13.574219 C 15.28125 13.5 15.234375 13.394531 15.234375 13.28125 L 15.234375 9.375 C 15.234375 9.269531 15.277344 9.171875 15.351562 9.097656 C 15.421875 9.023438 15.511719 8.984375 15.628906 8.984375 L 19.101562 9 L 19.207031 7.8125 L 14.0625 7.8125 L 14.0625 15.523438 L 17.078125 14.828125 C 17.199219 14.800781 17.324219 14.832031 17.417969 14.910156 C 17.515625 14.992188 17.5625 15.109375 17.554688 15.234375 L 17.433594 17.082031 C 17.421875 17.25 17.304688 17.390625 17.144531 17.433594 Z M 14.0625 18.269531 "/>
</g>
</svg>
